HIERARCHY
ROOT Hips
{
 OFFSET 0.000000 0.000000 0.000000
 CHANNELS 6 Xposition Yposition Zposition Yrotation Xrotation Zrotation
 JOINT Chest
 {
  OFFSET 0.000000 9.585900 0.002600
  CHANNELS 3 Yrotation Xrotation Zrotation
  JOINT Chest2
  {
   OFFSET 0.000000 9.601200 -0.005300
   CHANNELS 3 Yrotation Xrotation Zrotation
   JOINT Chest3
   {
    OFFSET 0.000000 9.561800 0.000000
    CHANNELS 3 Yrotation Xrotation Zrotation
    JOINT Chest4
    {
     OFFSET 0.000000 9.552100 0.000000
     CHANNELS 3 Yrotation Xrotation Zrotation
     JOINT Neck
     {
      OFFSET 0.000000 14.453000 0.000000
      CHANNELS 3 Yrotation Xrotation Zrotation
      JOINT Head
      {
       OFFSET 0.000000 8.936500 -0.011300
       CHANNELS 3 Yrotation Xrotation Zrotation
       End Site
       {
        OFFSET 0.000000 17.073600 -0.006000
       }
      }
     }
     JOINT RightCollar
     {
      OFFSET -2.921100 9.558500 0.000000
      CHANNELS 3 Yrotation Xrotation Zrotation
      JOINT RightShoulder
      {
       OFFSET -13.519700 0.000000 0.000000
       CHANNELS 3 Yrotation Xrotation Zrotation
       JOINT RightElbow
       {
        OFFSET 0.000000 -29.696600 0.000000
        CHANNELS 3 Yrotation Xrotation Zrotation
        JOINT RightWrist
        {
         OFFSET 0.000000 -24.004700 0.000000
         CHANNELS 3 Yrotation Xrotation Zrotation
         End Site
         {
          OFFSET 0.000000 -17.728500 0.000000
         }
        }
       }
      }
     }
     JOINT LeftCollar
     {
      OFFSET 2.921100 9.558500 0.000000
      CHANNELS 3 Yrotation Xrotation Zrotation
      JOINT LeftShoulder
      {
       OFFSET 13.519700 0.000000 0.000000
       CHANNELS 3 Yrotation Xrotation Zrotation
       JOINT LeftElbow
       {
        OFFSET 0.000000 -29.696600 0.000000
        CHANNELS 3 Yrotation Xrotation Zrotation
        JOINT LeftWrist
        {
         OFFSET 0.000000 -24.004700 0.000000
         CHANNELS 3 Yrotation Xrotation Zrotation
         End Site
         {
          OFFSET 0.000000 -17.728500 0.000000
         }
        }
       }
      }
     }
    }
   }
  }
 }
 JOINT RightHip
 {
  OFFSET -7.771700 -0.012900 -0.001300
  CHANNELS 3 Yrotation Xrotation Zrotation
  JOINT RightKnee
  {
   OFFSET 0.000000 -40.869800 0.001200
   CHANNELS 3 Yrotation Xrotation Zrotation
   JOINT RightAnkle
   {
    OFFSET 0.000000 -39.717900 0.002100
    CHANNELS 3 Yrotation Xrotation Zrotation
    JOINT RightToe
    {
     OFFSET 0.000000 -4.965400 11.033500
     CHANNELS 3 Yrotation Xrotation Zrotation
     End Site
     {
      OFFSET 0.000000 -1.423100 5.872300
     }
    }
   }
  }
 }
 JOINT LeftHip
 {
  OFFSET 7.771700 -0.012900 -0.001300
  CHANNELS 3 Yrotation Xrotation Zrotation
  JOINT LeftKnee
  {
   OFFSET 0.000000 -40.869800 0.001200
   CHANNELS 3 Yrotation Xrotation Zrotation
   JOINT LeftAnkle
   {
    OFFSET 0.000000 -39.717900 0.002100
    CHANNELS 3 Yrotation Xrotation Zrotation
    JOINT LeftToe
    {
     OFFSET 0.000000 -4.965400 11.033500
     CHANNELS 3 Yrotation Xrotation Zrotation
     End Site
     {
      OFFSET 0.000000 -1.423100 5.872300
     }
    }
   }
  }
 }
}
MOTION
Frames: 13
Frame Time: 0.008333
-40.270915 43.914664 34.018728 176.457438 -22.066635 -0.303232 -1.482847 17.012764 2.741484 -0.206687 1.839496 0.379562 -0.337082 3.059366 0.627796 -1.352905 15.011229 2.957308 1.549431 16.235140 -10.867810 4.313681 -8.101869 -12.524175 8.967574 0.464053 -4.661685 -6.725677 -9.039730 -7.843768 -165.076748 -73.873011 -175.301822 0.257228 10.213299 -19.281394 -16.020558 -0.969202 -3.287715 13.841742 -0.240705 0.190622 141.024122 -65.388707 -165.196817 10.292598 15.746081 18.118727 -5.382095 -70.329906 12.590046 -153.429279 70.184255 -152.403149 -12.997966 -23.626099 8.509405 0.310641 -1.101736 0.181233 5.950285 -59.177099 -6.583227 175.475394 63.230464 175.747099 -2.239743 -35.795185 3.742940 0.016882 0.107684 0.004186
-40.265206 43.916125 34.008652 176.439596 -22.170681 -0.336135 -1.547559 17.100288 2.752478 -0.212895 1.854859 0.382182 -0.347256 3.083761 0.631724 -1.394581 15.062866 2.958071 2.036239 16.255826 -11.128394 4.933762 -8.031411 -12.976769 8.980389 0.483056 -4.773380 -6.536514 -9.292955 -8.068511 -162.875202 -73.587200 -177.217844 0.447268 10.494248 -18.159035 -16.069741 -0.916351 -3.189488 13.972813 0.045737 0.079174 141.208514 -65.015061 -165.297823 10.014568 15.695577 17.245940 -5.451132 -70.215534 12.702468 -153.547604 70.196875 -152.516536 -13.059614 -23.644108 8.508875 0.329944 -1.085643 0.187089 5.870795 -59.069270 -6.484244 175.473002 63.217048 175.754407 -2.233230 -35.813072 3.731798 0.018338 0.105983 0.000913
-40.259879 43.916383 34.000338 176.396273 -22.268623 -0.355316 -1.542824 17.190537 2.772582 -0.262074 1.860535 0.383085 -0.357119 3.110998 0.636049 -1.433418 15.120582 2.959332 2.544762 16.280883 -11.385914 5.582207 -7.951513 -13.435727 9.040137 0.476727 -4.858285 -6.373984 -9.539065 -8.357921 -160.667413 -73.251736 -179.135782 0.660296 10.766341 -17.008855 -16.133064 -0.848632 -3.106627 14.128741 0.302341 0.003429 141.278127 -64.599312 -165.329766 9.731859 15.621482 16.341703 -5.488242 -70.112454 12.793612 -153.567636 70.196023 -152.534161 -13.068395 -23.662611 8.509843 0.352128 -1.064714 0.182218 5.787029 -58.967210 -6.384229 175.455874 63.203437 175.741908 -2.204959 -35.833295 3.695764 0.021843 0.105373 -0.002522
-40.252143 43.916680 33.990536 176.363410 -22.383315 -0.390326 -1.612212 17.282456 2.779028 -0.223324 1.885526 0.388014 -0.338807 3.127170 0.638038 -1.517928 15.196555 2.963834 3.065624 16.308012 -11.637540 6.248098 -7.865113 -13.895187 9.094797 0.466573 -4.941496 -6.189261 -9.797111 -8.678452 -158.509191 -72.863746 178.995211 0.895313 11.028200 -15.837748 -16.209893 -0.779324 -3.027742 14.307072 0.540435 -0.040072 141.237682 -64.145665 -165.298281 9.445445 15.510439 15.392864 -5.578893 -69.985681 12.950552 -153.521434 70.188996 -152.492151 -13.127217 -23.692409 8.524581 0.337383 -1.032150 0.178995 5.670877 -58.851691 -6.245820 175.457649 63.185949 175.741556 -2.187522 -35.853335 3.675077 0.022374 0.103257 -0.007631
-40.252272 43.917274 33.977636 176.335934 -22.521957 -0.378638 -1.701438 17.396094 2.730664 -0.138793 1.913819 0.396327 -0.366678 3.140352 0.640414 -1.595219 15.283878 2.963891 3.587639 16.335512 -11.882507 6.918691 -7.774821 -14.351031 9.150358 0.446218 -5.028378 -6.001206 -10.064239 -9.017613 -156.455110 -72.431494 177.237460 1.143277 11.270310 -14.661140 -16.296298 -0.721723 -2.939576 14.497134 0.767113 -0.058958 141.082492 -63.649666 -165.200635 9.165339 15.365358 14.396585 -5.514579 -69.843990 12.916106 -153.672981 70.192727 -152.638285 -13.180847 -23.753281 8.544647 0.319188 -1.001388 0.162909 5.566995 -58.704762 -6.166386 175.445992 63.176266 175.700479 -2.165345 -35.863638 3.656854 0.024281 0.095609 -0.023757
-40.245466 43.915069 33.970496 176.286075 -22.635133 -0.402979 -1.728794 17.493140 2.737586 -0.149156 1.930987 0.399638 -0.443976 3.202522 0.644283 -1.544309 15.339889 2.955076 4.099620 16.364007 -12.122304 7.581369 -7.680573 -14.801528 9.207905 0.414381 -5.124102 -5.837293 -10.343387 -9.366567 -154.524581 -71.963444 175.625083 1.403677 11.482422 -13.494342 -16.382118 -0.681222 -2.844151 14.683588 0.977107 -0.051286 140.787838 -63.107834 -165.019829 8.904572 15.202674 13.367695 -5.572747 -69.724891 13.038780 -153.667960 70.187492 -152.641199 -13.158947 -23.795443 8.540901 0.355070 -0.981652 0.164511 5.494206 -58.591710 -6.047210 175.445536 63.157602 175.699348 -2.153822 -35.880233 3.653088 0.021690 0.095964 -0.028170
-40.248274 43.913510 33.959950 176.253463 -22.775816 -0.378056 -1.782828 17.618197 2.685386 -0.218333 1.957109 0.397537 -0.408603 3.248606 0.650146 -1.538989 15.412085 2.947720 4.592274 16.397741 -12.358296 8.225204 -7.578125 -15.245077 9.268191 0.374580 -5.225485 -5.710878 -10.637464 -9.723424 -152.731653 -71.467292 174.175312 1.675773 11.653690 -12.333898 -16.461059 -0.655960 -2.748523 14.859502 1.159715 -0.013751 140.324635 -62.525241 -164.736712 8.675370 15.036318 12.334436 -5.483972 -69.585884 12.988681 -153.661487 70.180481 -152.637441 -13.224646 -23.803920 8.563226 0.390001 -0.994633 0.168409 5.434974 -58.441111 -6.003874 175.429229 63.150894 175.655105 -2.132694 -35.892445 3.644978 0.021208 0.091689 -0.047338
-40.247565 43.910072 33.954010 176.197153 -22.899224 -0.370876 -1.796743 17.729153 2.662958 -0.241620 1.983452 0.397555 -0.359030 3.261568 0.657724 -1.584078 15.523345 2.937819 5.056968 16.440169 -12.591427 8.839640 -7.464295 -15.679662 9.328588 0.325059 -5.325360 -5.613096 -10.942359 -10.088650 -151.073484 -70.949832 172.876899 1.945320 11.767482 -11.161786 -16.535514 -0.644480 -2.655958 15.026049 1.306902 0.055156 139.686554 -61.910610 -164.346892 8.478552 14.864150 11.311481 -5.451809 -69.468427 13.021133 -153.633749 70.172123 -152.626864 -13.208185 -23.810764 8.578045 0.381726 -1.028741 0.165086 5.346619 -58.314981 -5.917754 175.402556 63.138533 175.610273 -2.094747 -35.911328 3.609828 0.018472 0.095194 -0.056247
-40.245672 43.906435 33.949555 176.139429 -23.025112 -0.375622 -1.792898 17.845693 2.655829 -0.243558 2.010041 0.399488 -0.380746 3.316096 0.659127 -1.565114 15.600918 2.929541 5.485455 16.489869 -12.822278 9.414510 -7.341742 -16.103035 9.386073 0.260884 -5.420742 -5.529474 -11.248182 -10.460509 -149.512241 -70.409693 171.683545 2.195706 11.814436 -9.975180 -16.610085 -0.644211 -2.568854 15.187933 1.409237 0.157026 138.917578 -61.272390 -163.892491 8.314404 14.667961 10.296824 -5.441089 -69.353005 13.085939 -153.559712 70.158785 -152.561276 -13.209012 -23.785092 8.580767 0.397250 -1.044978 0.174053 5.249447 -58.189344 -5.813403 175.385964 63.124588 175.579445 -2.057722 -35.930888 3.578091 0.022561 0.099822 -0.063648
-40.242219 43.902385 33.948330 176.074546 -23.142697 -0.392859 -1.763812 17.958450 2.667989 -0.244293 2.038176 0.401341 -0.396730 3.374465 0.659872 -1.539881 15.682226 2.921592 5.872025 16.540039 -13.049696 9.942170 -7.219583 -16.511683 9.437501 0.180650 -5.513677 -5.444973 -11.550046 -10.837717 -148.010950 -69.842564 170.553839 2.417685 11.801684 -8.801118 -16.690563 -0.652787 -2.488073 15.354567 1.456897 0.292591 138.093015 -60.616633 -163.439848 8.188085 14.429672 9.281445 -5.460497 -69.237009 13.177152 -153.523912 70.156102 -152.527848 -13.175206 -23.814879 8.581819 0.378507 -1.030575 0.166328 5.133617 -58.080492 -5.678863 175.360054 63.103212 175.545362 -2.031220 -35.948997 3.542840 0.027866 0.103046 -0.068772
-40.240726 43.900958 33.944057 176.026649 -23.290684 -0.407438 -1.740701 18.105768 2.671542 -0.231924 2.053128 0.411451 -0.408091 3.436689 0.654359 -1.520737 15.782560 2.911732 6.213299 16.585545 -13.269086 10.416378 -7.105245 -16.898310 9.482511 0.088115 -5.608847 -5.354861 -11.846762 -11.215212 -146.554817 -69.247921 169.473726 2.605902 11.741042 -7.672279 -16.777469 -0.669425 -2.411792 15.532397 1.451022 0.457841 137.275057 -59.948011 -163.032922 8.098123 14.144097 8.252342 -5.460786 -69.091980 13.231223 -153.484448 70.154455 -152.491169 -13.163644 -23.784276 8.574482 0.336068 -1.066507 0.165939 5.015118 -57.936186 -5.563551 175.332322 63.083356 175.514293 -2.003236 -35.966775 3.490075 0.037335 0.102927 -0.058517
-40.237808 43.899639 33.943892 175.954470 -23.423800 -0.424183 -1.679681 18.240348 2.690625 -0.227434 2.067977 0.422315 -0.409071 3.503146 0.647005 -1.493858 15.887713 2.899749 6.507607 16.626320 -13.474047 10.832167 -7.000458 -17.253579 9.529640 -0.010949 -5.708823 -5.263024 -12.134067 -11.587968 -145.140541 -68.629048 168.434818 2.751489 11.645494 -6.604488 -16.860574 -0.692130 -2.336027 15.723193 1.402360 0.641913 136.475902 -59.268079 -162.679336 8.031187 13.816797 7.208214 -5.457998 -68.964434 13.315900 -153.411368 70.159739 -152.425579 -13.135449 -23.731156 8.562706 0.322031 -1.088401 0.171126 4.947729 -57.802299 -5.458771 175.314793 63.068720 175.510638 -1.977498 -35.990254 3.448032 0.048152 0.109079 -0.045853
-40.235220 43.900728 33.942978 175.864472 -23.571607 -0.430294 -1.590584 18.389187 2.719094 -0.238115 2.098573 0.412990 -0.394651 3.558161 0.650197 -1.460465 15.995742 2.884592 6.752901 16.662752 -13.660271 11.184962 -6.906403 -17.570684 9.585597 -0.109326 -5.812873 -5.164614 -12.410817 -11.961438 -143.767306 -67.988056 167.420984 2.843227 11.529147 -5.593444 -16.932240 -0.722109 -2.260260 15.924619 1.319336 0.833276 135.664738 -58.581029 -162.356405 7.969423 13.456257 6.158874 -5.407695 -68.821644 13.370123 -153.338556 70.167759 -152.353194 -13.107232 -23.684111 8.544482 0.322102 -1.095405 0.180559 4.832548 -57.637753 -5.324317 175.284007 63.066352 175.475776 -1.938262 -36.051683 3.392759 0.057398 0.148794 -0.025002
